# xmcd CD database file
#
# Track frame offsets:
#	150
#	47200
#	65104
#	108962
#	142802
#	188508
#	216794
#	222082
#	259214
#
# Disc length: 3587 seconds
#
# Revision: 0
# Processed by: cddbd v1.5.2PL0 Copyright (c) Steve Scherf et al.
# Submitted via: CDex 1.51
#
DISCID=850e0109
DTITLE=Miles Davis - Bitchnes Brew Live
DYEAR=1900
DGENRE=Jazz
TTITLE0=Miles Runs The Voodoo Down
TTITLE1=Sanctuary
TTITLE2=It's About That Time - The Theme
TTITLE3=Directions
TTITLE4=Bitchnes Brew
TTITLE5=It's About That Time
TTITLE6=Sanctuary
TTITLE7=Spanish Key
TTITLE8=The Theme
EXTD=
EXTT0=
EXTT1=
EXTT2=
EXTT3=
EXTT4=
EXTT5=
EXTT6=
EXTT7=
EXTT8=
PLAYORDER=
